<svg width="500" height="500" viewBox="0 0 500 500" fill="none" xmlns="http://www.w3.org/2000/svg">
<path fill-rule="evenodd" clip-rule="evenodd" d="M250 0C388.071 0 500 111.929 500 250C500 388.071 388.071 500 250 500C111.929 500 0 388.071 0 250C0 111.929 111.929 0 250 0ZM220.5 80.9155C205.471 95.3782 199.531 116.956 199.531 144.438V186.656H155V250.031H199.531V440H281.656V250.031H337.469L344.969 186.656H281.656V149C281.656 131.98 285.392 123.344 311.812 123.344H344.969V60H289.688C256.828 60 234.641 67.3083 220.5 80.9155Z" fill="white"/>
</svg>
