<svg viewBox="0 0 14 14" width="14" height="14" fill="none" xmlns="http://www.w3.org/2000/svg">
    <g>
        <path d="M6.989,5.54c-0.013,0-0.026-0.001-0.04-0.001c-0.354,0-0.69,0.138-0.952,0.392C5.714,6.207,5.552,6.592,5.552,6.989c0,0.799,0.65,1.448,1.448,1.448c0.794,0,1.43-0.64,1.448-1.456c0.009-0.412-0.109-0.761-0.343-1.01C7.855,5.703,7.469,5.554,6.989,5.54z"></path>
        <path d="M8.652,3.491H5.349c-0.963,0-1.747,0.783-1.747,1.746v3.525c0,0.963,0.783,1.746,1.747,1.746h3.303c0.963,0,1.746-0.783,1.746-1.746V5.238C10.398,4.275,9.615,3.491,8.652,3.491z M8.537,8.532C8.127,8.945,7.582,9.173,7,9.173c-1.204,0-2.184-0.98-2.184-2.184c0-0.594,0.244-1.172,0.669-1.585C5.9,5.001,6.442,4.788,7.011,4.805c0.68,0.02,1.245,0.249,1.632,0.663C9.01,5.86,9.198,6.388,9.184,6.997C9.171,7.579,8.942,8.124,8.537,8.532z M9.237,5.252c-0.281,0-0.51-0.228-0.51-0.509s0.228-0.509,0.51-0.509c0.281,0,0.51,0.228,0.51,0.509S9.519,5.252,9.237,5.252z"></path>
        <path d="M7,0C3.14,0,0,3.14,0,7s3.14,7,7,7s7-3.14,7-7S10.86,0,7,0z M11,8.762c0,1.295-1.053,2.348-2.348,2.348H5.349C4.053,11.111,3,10.057,3,8.762V5.238c0-1.295,1.053-2.349,2.349-2.349h3.303C9.947,2.889,11,3.943,11,5.238V8.762z"></path>
    </g>
</svg>