<svg width="14" height="14" viewBox="0 0 14 14" fill="none" xmlns="http://www.w3.org/2000/svg">
<path d="M6.98876 5.54006C6.97576 5.54006 6.96276 5.53906 6.94876 5.53906C6.59476 5.53906 6.25876 5.67706 5.99676 5.93106C5.71376 6.20706 5.55176 6.59206 5.55176 6.98906C5.55176 7.78806 6.20176 8.43706 6.99976 8.43706C7.79376 8.43706 8.42976 7.79706 8.44776 6.98106C8.45676 6.56906 8.33876 6.22006 8.10476 5.97106C7.85476 5.70306 7.46876 5.55406 6.98876 5.54006Z" fill="white"/>
<path d="M8.65156 3.49097H5.34856C4.38556 3.49097 3.60156 4.27397 3.60156 5.23697V8.76197C3.60156 9.72497 4.38456 10.508 5.34856 10.508H8.65156C9.61456 10.508 10.3976 9.72497 10.3976 8.76197V5.23797C10.3976 4.27497 9.61456 3.49097 8.65156 3.49097ZM8.53656 8.53197C8.12656 8.94497 7.58156 9.17297 6.99956 9.17297C5.79556 9.17297 4.81556 8.19297 4.81556 6.98897C4.81556 6.39497 5.05956 5.81697 5.48456 5.40397C5.89956 5.00097 6.44156 4.78797 7.01056 4.80497C7.69056 4.82497 8.25556 5.05397 8.64256 5.46797C9.00956 5.85997 9.19756 6.38797 9.18356 6.99697C9.17056 7.57897 8.94156 8.12397 8.53656 8.53197ZM9.23656 5.25197C8.95556 5.25197 8.72656 5.02397 8.72656 4.74297C8.72656 4.46197 8.95456 4.23397 9.23656 4.23397C9.51756 4.23397 9.74656 4.46197 9.74656 4.74297C9.74656 5.02397 9.51856 5.25197 9.23656 5.25197Z" fill="white"/>
<path d="M7 0C3.14 0 0 3.14 0 7C0 10.86 3.14 14 7 14C10.86 14 14 10.86 14 7C14 3.14 10.86 0 7 0ZM11 8.762C11 10.057 9.947 11.11 8.652 11.11H5.349C4.053 11.111 3 10.057 3 8.762V5.238C3 3.943 4.053 2.889 5.349 2.889H8.652C9.947 2.889 11 3.943 11 5.238V8.762Z" fill="white"/>
</svg>
