<svg width="420" height="420" viewBox="0 0 420 420" fill="none" xmlns="http://www.w3.org/2000/svg">
<g clip-path="url(#clip0)">
<path d="M342.818 100.279C342.819 105.086 341.395 109.784 338.725 113.781C336.055 117.778 332.26 120.894 327.82 122.733C323.379 124.573 318.493 125.055 313.779 124.117C309.064 123.18 304.734 120.865 301.335 117.467C297.937 114.068 295.622 109.738 294.685 105.023C293.747 100.309 294.229 95.423 296.069 90.9825C297.909 86.5421 301.024 82.747 305.021 80.0772C309.018 77.4075 313.716 75.983 318.523 75.984C324.966 75.9853 331.145 78.5454 335.701 83.1013C340.257 87.6572 342.817 93.836 342.818 100.279V100.279ZM420 209.999L419.995 210.305L418.615 298.41C418.256 330.178 405.477 360.543 383.013 383.008C360.548 405.472 330.183 418.251 298.415 418.61L210 419.999L209.694 419.993L121.589 418.617C89.8207 418.258 59.4546 405.48 36.9891 383.015C14.5235 360.551 1.74314 330.185 1.383 298.417L0 209.999L0.00600052 209.693L1.382 121.585C1.74316 89.8171 14.5238 59.4522 36.9892 36.988C59.4545 14.5237 89.82 1.74459 121.588 1.38503L210 -0.000976562L210.306 0.00502396L298.411 1.38102C330.178 1.74062 360.543 14.52 383.008 36.9844C405.472 59.4488 418.251 89.8136 418.611 121.581L420 209.999ZM380.888 209.999L379.514 122.199C379.27 100.603 370.583 79.9598 355.311 64.6879C340.039 49.416 319.396 40.7283 297.8 40.484L210 39.113L122.2 40.484C100.604 40.7288 79.961 49.4165 64.689 64.6883C49.417 79.9601 40.729 100.603 40.484 122.199L39.113 209.999L40.484 297.799C40.7282 319.396 49.416 340.039 64.6882 355.311C79.9603 370.583 100.603 379.27 122.2 379.514L210 380.885L297.8 379.514C319.396 379.271 340.04 370.583 355.312 355.311C370.584 340.039 379.271 319.396 379.514 297.799L380.888 209.999ZM317.84 209.999C317.84 231.328 311.515 252.178 299.665 269.912C287.816 287.647 270.973 301.469 251.268 309.631C231.562 317.793 209.879 319.929 188.96 315.768C168.041 311.607 148.825 301.336 133.744 286.254C118.662 271.172 108.391 251.956 104.23 231.037C100.069 210.118 102.205 188.435 110.367 168.729C118.53 149.024 132.352 132.182 150.086 120.332C167.821 108.482 188.671 102.158 210 102.158C238.591 102.19 266.002 113.563 286.219 133.78C306.436 153.997 317.808 181.408 317.84 209.999V209.999ZM278.733 209.999C278.733 196.405 274.702 183.116 267.149 171.812C259.597 160.509 248.862 151.699 236.302 146.497C223.743 141.295 209.922 139.934 196.589 142.586C183.256 145.238 171.009 151.784 161.396 161.397C151.784 171.01 145.238 183.257 142.586 196.59C139.934 209.923 141.295 223.744 146.497 236.303C151.7 248.863 160.51 259.597 171.813 267.15C183.117 274.702 196.406 278.733 210 278.733C228.223 278.712 245.693 271.463 258.578 258.578C271.463 245.692 278.711 228.222 278.732 209.999H278.733Z" fill="white"/>
</g>
<defs>
<clipPath id="clip0">
<rect width="420" height="419.997" fill="white"/>
</clipPath>
</defs>
</svg>
