<svg width="138" height="44" viewBox="0 0 138 44" fill="none" xmlns="http://www.w3.org/2000/svg">
<g id="Icons">
<g id="soundcloud">
<path id="Exclude" fill-rule="evenodd" clip-rule="evenodd" d="M137 22C137 30.8366 129.836 38 121 38C112.164 38 105 30.8366 105 22C105 13.1635 112.164 6 121 6C129.836 6 137 13.1635 137 22ZM109.733 25.9412C109.75 25.9244 109.761 25.9003 109.765 25.8721L109.966 24.523L109.765 23.1496C109.757 23.0925 109.72 23.0529 109.672 23.0529C109.633 23.0529 109.602 23.0782 109.587 23.1176C109.583 23.1275 109.581 23.1382 109.579 23.1496L109.41 24.5215L109.579 25.8708C109.587 25.9274 109.624 25.9669 109.672 25.9669C109.696 25.9669 109.717 25.9574 109.733 25.9412ZM110.529 26.7915C110.579 26.7915 110.619 26.7504 110.626 26.6918L110.886 24.5212L110.626 22.3019C110.619 22.2439 110.579 22.2022 110.529 22.2022C110.481 22.2022 110.44 22.2448 110.433 22.3019L110.206 24.5212L110.433 26.6918C110.439 26.7504 110.481 26.7915 110.529 26.7915ZM111.534 27.1274C111.546 27.1084 111.554 27.0853 111.557 27.0594L111.801 24.523L111.557 21.8903C111.549 21.8188 111.5 21.7677 111.44 21.7677C111.379 21.7677 111.33 21.8188 111.324 21.8903L111.108 24.523L111.324 27.0594C111.33 27.1299 111.379 27.1801 111.44 27.1801C111.478 27.1801 111.512 27.16 111.534 27.1274ZM112.359 27.2819C112.429 27.2819 112.488 27.2208 112.495 27.1399L112.727 24.523L112.495 21.8179C112.49 21.76 112.459 21.7124 112.417 21.6897C112.399 21.6804 112.379 21.6753 112.359 21.6753C112.287 21.6753 112.228 21.7364 112.222 21.8179L112.018 24.523L112.222 27.1399C112.228 27.2208 112.287 27.2819 112.359 27.2819ZM113.285 27.3245C113.366 27.3245 113.435 27.2549 113.439 27.1609L113.658 24.5227L113.439 22.0119C113.436 21.9366 113.39 21.8764 113.328 21.8568C113.314 21.8525 113.3 21.8501 113.285 21.8501C113.201 21.8501 113.134 21.9198 113.128 22.0131L112.936 24.5227L113.128 27.1609C113.134 27.2549 113.201 27.3245 113.285 27.3245ZM114.338 27.2919C114.37 27.2587 114.39 27.213 114.393 27.1624L114.597 24.5242L114.393 20.4397C114.387 20.3375 114.31 20.2551 114.217 20.2551C114.124 20.2551 114.046 20.3372 114.041 20.4412L113.861 24.5242L114.041 27.1624C114.046 27.2646 114.124 27.347 114.217 27.347C114.264 27.347 114.307 27.326 114.338 27.2919ZM115.142 27.3658C115.248 27.3658 115.333 27.2743 115.339 27.1609L115.53 24.5382L115.339 19.5211C115.333 19.4062 115.248 19.3153 115.142 19.3153C115.039 19.3153 114.953 19.4062 114.948 19.5211L114.778 24.5382L114.948 27.1594C114.953 27.2743 115.039 27.3658 115.142 27.3658ZM116.105 27.3464C116.221 27.3464 116.316 27.2469 116.32 27.1205L116.499 24.526L116.32 19.0894C116.316 18.9629 116.221 18.8617 116.105 18.8617C115.989 18.8617 115.895 18.9629 115.891 19.0894L115.733 24.526L115.891 27.1205C115.895 27.2469 115.989 27.3464 116.105 27.3464ZM117.062 27.3515C117.189 27.3515 117.291 27.2424 117.296 27.1031L117.459 24.5254L117.296 18.9073C117.292 18.7674 117.189 18.6586 117.062 18.6586C116.934 18.6586 116.831 18.7674 116.827 18.9073L116.679 24.5254L116.827 27.1044C116.831 27.2424 116.934 27.3515 117.062 27.3515ZM118.023 27.3488C118.163 27.3488 118.273 27.2293 118.278 27.0803L118.43 24.526L118.278 19.0514C118.273 18.8988 118.163 18.7808 118.023 18.7808C117.884 18.7808 117.772 18.8988 117.768 19.0514L117.634 24.526L117.77 27.0803C117.772 27.2293 117.885 27.3488 118.023 27.3488ZM118.994 27.3531C119.144 27.3531 119.266 27.2269 119.268 27.0651L119.406 24.5273L119.268 19.2514C119.266 19.0879 119.144 18.9599 118.994 18.9599C118.843 18.9599 118.723 19.0879 118.719 19.2514L118.596 24.5257L118.718 27.0651C118.723 27.2269 118.843 27.3531 118.994 27.3531ZM120.266 27.046L120.39 24.5273L120.266 18.2493C120.264 18.1411 120.213 18.0465 120.134 17.9903C120.087 17.9559 120.032 17.9364 119.973 17.9364C119.913 17.9364 119.859 17.9553 119.814 17.9875C119.733 18.0432 119.679 18.1402 119.678 18.249L119.676 18.3086L119.565 24.5242L119.678 27.0478L119.678 27.0546L119.679 27.0591C119.682 27.1281 119.707 27.1937 119.747 27.2445C119.802 27.3145 119.882 27.3588 119.973 27.3588C120.05 27.3588 120.124 27.3233 120.178 27.2676C120.206 27.237 120.229 27.2 120.244 27.1588C120.257 27.1238 120.265 27.0857 120.266 27.046ZM120.945 27.3436C121.116 27.3436 121.257 27.194 121.259 27.0134L121.399 24.5282L121.261 17.6801C121.258 17.5594 121.195 17.4539 121.106 17.3943C121.059 17.3651 121.004 17.3478 120.945 17.3478C120.871 17.3478 120.802 17.3764 120.748 17.4235C120.678 17.4859 120.632 17.5783 120.632 17.6817V17.716L120.503 24.5285L120.567 25.7866L120.632 27.0119C120.633 27.194 120.774 27.3436 120.945 27.3436ZM121.835 27.3503H129.739C131.313 27.3503 132.589 26.004 132.589 24.3254C132.589 22.6464 131.313 21.2855 129.739 21.2855C129.349 21.2855 128.976 21.3713 128.637 21.5218C128.409 18.7838 126.255 16.6345 123.626 16.6345C122.982 16.6345 122.355 16.7695 121.802 16.9982C121.587 17.086 121.53 17.1776 121.527 17.3551V27.0007C121.53 27.1871 121.665 27.3318 121.835 27.3503Z" fill="#E8E8E8"/>
</g>
<g id="youtube">
<path id="Exclude_2" fill-rule="evenodd" clip-rule="evenodd" d="M85 22C85 30.8365 77.8364 38 69 38C60.1636 38 53 30.8365 53 22C53 13.1634 60.1636 6 69 6C77.8364 6 85 13.1634 85 22ZM73.4761 24.5119H74.5518L74.5645 23.9298C74.5645 23.6709 74.3354 23.4595 74.0566 23.4595H73.9878C73.709 23.4595 73.4814 23.6708 73.4814 23.9298L73.4761 24.5119ZM70.0244 23.6445C70.0244 23.4354 70.2476 23.2643 70.5195 23.2643C70.7935 23.2643 71.0166 23.4354 71.0166 23.6443V26.4756C71.0166 26.6847 70.7935 26.8548 70.5195 26.8548C70.2476 26.8548 70.0244 26.6847 70.0244 26.4756V23.6445ZM77.0664 27.0664V21.681C77.0664 20.3893 75.8652 19.3317 74.3965 19.3317H63.417C61.9478 19.3317 60.7466 20.389 60.7466 21.681V27.0664C60.7466 28.3582 61.9478 29.4153 63.417 29.4153H74.396C75.8652 29.4153 77.0664 28.3584 77.0664 27.0664ZM64.1484 21.9783L64.1489 27.6513L63.0142 27.6511V21.9621L61.8813 21.9589V21.1328L65.5093 21.1379V21.9788L64.1484 21.9783ZM67.0942 22.8236H68.229L68.2285 27.6496L67.3179 27.6483L67.3198 27.0229C67.0752 27.5131 66.0962 27.9075 65.5864 27.5641C65.3452 27.4037 65.3232 27.1365 65.3037 26.8874L65.2944 26.7846C65.2852 26.6912 65.2856 26.5307 65.2876 26.3183C65.2886 26.1758 65.2905 26.0099 65.2905 25.8252L65.2866 22.8233H66.415L66.4199 25.8733C66.4204 26.0334 66.417 26.1678 66.4146 26.2771C66.4102 26.4523 66.4072 26.5633 66.4238 26.6129C66.585 27.0716 67 26.8222 67.0928 26.5873C67.1055 26.5545 67.1074 26.496 67.106 26.4058C67.1035 26.2841 67.0942 26.1046 67.0942 25.8528V22.8236ZM71.8569 23.7709L71.8594 26.2923C71.8613 27.5144 71.1123 28.2129 69.9204 27.1928L69.8359 27.596L68.9038 27.6088L68.9092 21.1389L70.043 21.1371L70.0381 23.0118C71.0854 22.2343 71.856 22.8098 71.8569 23.7709ZM74.5601 25.9625L75.4111 25.9583C75.7988 28.1078 72.5435 28.461 72.543 25.962V24.4587C72.543 24.0076 72.5908 23.653 72.6875 23.393C72.7837 23.1328 72.9482 22.9395 73.1641 22.7949C73.8516 22.3323 75.2119 22.4756 75.3511 23.3795C75.3955 23.6652 75.4092 24.1647 75.4092 24.6641V25.3479H73.4609V26.5128C73.4609 26.7496 73.6709 26.9425 73.9263 26.9425H74.0928C74.3481 26.9425 74.5576 26.7496 74.5576 26.5128V26.07C74.5581 26.0302 74.5601 25.9942 74.5601 25.9625ZM71.3193 18.1178C71.1953 18.0363 71.1045 17.9291 71.0464 17.7961C71.0112 17.7157 70.9844 17.6337 70.9653 17.5498C70.9526 17.4936 70.9434 17.4365 70.9375 17.3784C70.9233 17.2325 70.9155 16.9452 70.9155 16.5142V13.1313H71.9541V17.035C71.9541 17.246 72.1421 17.4191 72.3687 17.4191C72.5972 17.4191 72.7842 17.246 72.7842 17.035V13.1313H73.7798V18.147H72.5151L72.5366 17.7318C72.4502 17.9006 72.3438 18.0267 72.2178 18.1114C72.0923 18.1966 71.9473 18.2378 71.7837 18.2378C71.5972 18.2378 71.4404 18.1973 71.3193 18.1178ZM67.3418 13.835C67.2563 14.1059 67.2134 14.4817 67.2134 14.9633V16.2913C67.2134 16.7311 67.2363 17.0607 67.2842 17.2804C67.3311 17.4998 67.4092 17.6881 67.5215 17.8427C67.5767 17.9202 67.6436 17.9881 67.7217 18.0463C67.7993 18.104 67.8877 18.1521 67.9878 18.1905C68.1875 18.2683 68.4307 18.3053 68.7188 18.3053C68.9771 18.3053 69.2056 18.2612 69.4048 18.1706C69.603 18.0813 69.7661 17.9411 69.8926 17.7536C70.0205 17.5644 70.103 17.3624 70.1411 17.1444C70.1797 16.9269 70.1997 16.5848 70.1997 16.1195V14.8508C70.1997 14.4834 70.1792 14.2102 70.1367 14.0296C70.0947 13.8512 70.0176 13.6767 69.9023 13.5071C69.8472 13.4239 69.7798 13.3485 69.7007 13.2809C69.6187 13.211 69.5239 13.1494 69.4175 13.0957C69.2905 13.0323 69.1484 12.9875 68.9907 12.9621C68.8882 12.9456 68.7793 12.9372 68.6641 12.9372C68.3169 12.9372 68.0303 13.0194 67.8066 13.1841C67.583 13.3475 67.4277 13.5647 67.3418 13.835ZM68.7065 17.4716C68.4307 17.4716 68.2036 17.2396 68.2036 16.9559V14.2856C68.2036 14.0016 68.4307 13.77 68.7065 13.77C68.9829 13.77 69.2085 14.0019 69.2085 14.2856V16.9559C69.2085 17.2399 68.9829 17.4716 68.7065 17.4716ZM65.8965 18.3041H64.7026L64.7012 14.4594L63.2007 11.1553H64.4922L65.2529 13.6099L66.0024 11.1616H67.3076L65.8975 14.4571L65.8965 18.3041Z" fill="#E8E8E8"/>
</g>
<g id="spotify">
<path id="Vector" d="M18 6C9.16363 6 2 13.1634 2 21.9997C2 30.837 9.16363 38 18 38C26.8368 38 34 30.837 34 21.9997C34 13.164 26.8373 6 18 6ZM25.3375 29.0762C25.0501 29.5475 24.4361 29.6952 23.9663 29.408C20.209 27.1117 15.4799 26.593 9.91049 27.8652C9.3738 27.9883 8.83883 27.6518 8.71655 27.1153C8.5937 26.5786 8.92863 26.0437 9.46665 25.9214C15.5615 24.528 20.7895 25.1277 25.0068 27.7048C25.4768 27.9933 25.626 28.6062 25.3375 29.0762ZM27.2959 24.7202C26.934 25.3073 26.1663 25.4915 25.58 25.131C21.2801 22.4879 14.7235 21.7223 9.63651 23.2664C8.97677 23.4657 8.27998 23.0939 8.07974 22.4353C7.88104 21.7756 8.25304 21.0801 8.91162 20.8795C14.7224 19.1164 21.946 19.9705 26.8849 23.0054C27.4715 23.3666 27.657 24.1344 27.2959 24.7202ZM27.464 20.1837C22.3065 17.1208 13.7993 16.8392 8.8759 18.3335C8.08529 18.5732 7.2492 18.1269 7.00961 17.3363C6.77002 16.5453 7.21596 15.7098 8.00714 15.4695C13.6589 13.7538 23.0543 14.0853 28.9913 17.6097C29.7025 18.0318 29.9358 18.9502 29.5143 19.6604C29.0939 20.3715 28.1728 20.6059 27.464 20.1837Z" fill="#E8E8E8"/>
</g>
</g>
</svg>
