<?xml version="1.0" encoding="utf-8"?>
<!-- Generator: Adobe Illustrator 16.0.0, SVG Export Plug-In . SVG Version: 6.00 Build 0)  -->
<!DOCTYPE svg PUBLIC "-//W3C//DTD SVG 1.0//EN" "http://www.w3.org/TR/2001/REC-SVG-20010904/DTD/svg10.dtd">
<svg version="1.0" id="Layer_1" xmlns="http://www.w3.org/2000/svg" xmlns:xlink="http://www.w3.org/1999/xlink" x="0px" y="0px"
	 width="51.2px" height="24.066px" viewBox="0 0 51.2 24.066" enable-background="new 0 0 51.2 24.066" xml:space="preserve">
<g>
	<path fill="#ED1163" d="M9.357,0h0.87v7.368c0,1.115,0.22,1.944,0.658,2.486s1.109,0.813,2.014,0.813
		c0.891,0,1.555-0.271,1.993-0.813c0.439-0.542,0.658-1.371,0.658-2.486V0h0.884v7.037c0,1.526-0.292,2.666-0.877,3.418
		s-1.471,1.129-2.658,1.129c-1.192,0-2.08-0.376-2.665-1.129S9.357,8.563,9.357,7.037V0z"/>
	<path fill="#ED1163" d="M42.384,23.74V12.182l7.875,9.279V12.65H51.2v11.416l-7.867-9.295v8.969H42.384z"/>
	<polygon fill="#ED1163" points="33.894,12.211 29.011,23.74 30.036,23.74 33.825,14.295 37.471,23.74 38.571,23.74 	"/>
	<polygon fill="#ED1163" points="38.803,0.076 33.92,11.605 34.945,11.605 38.734,2.159 42.379,11.605 43.48,11.605 	"/>
	<path fill="#ED1163" d="M0,11.605L4.883,0.076H5.87L1.481,10.658h4.01l-0.403,0.947H0z"/>
	<polygon fill="#ED1163" points="19.931,0 19.939,11.605 20.926,11.605 20.926,4.573 20.926,0 	"/>
	<polygon fill="#ED1163" points="20.926,12.182 19.939,12.182 15.095,23.736 20.183,23.736 20.585,22.79 16.576,22.79 	"/>
	<polygon fill="#ED1163" points="25.356,10.694 31.933,0.064 24.566,0.064 24.566,1.024 30.209,1.024 23.603,11.669 27.875,11.669 
		22.732,23.736 23.743,23.736 29.26,10.694 28.291,10.694 	"/>
</g>
</svg>
