<svg width="32" height="32" viewBox="0 0 32 32" fill="none" xmlns="http://www.w3.org/2000/svg">
<path d="M16 0C7.16363 0 0 7.1634 0 15.9997C0 24.837 7.16363 32 16 32C24.8368 32 32 24.837 32 15.9997C32 7.16397 24.8373 0 16 0ZM23.3375 23.0762C23.0501 23.5475 22.4361 23.6952 21.9663 23.408C18.209 21.1117 13.4799 20.593 7.91049 21.8652C7.3738 21.9883 6.83883 21.6518 6.71655 21.1153C6.5937 20.5786 6.92863 20.0437 7.46665 19.9214C13.5615 18.528 18.7895 19.1277 23.0068 21.7048C23.4768 21.9933 23.626 22.6062 23.3375 23.0762ZM25.2959 18.7202C24.934 19.3073 24.1663 19.4915 23.58 19.131C19.2801 16.4879 12.7235 15.7223 7.63651 17.2664C6.97677 17.4657 6.27998 17.0939 6.07974 16.4353C5.88104 15.7756 6.25304 15.0801 6.91162 14.8795C12.7224 13.1164 19.946 13.9705 24.8849 17.0054C25.4715 17.3666 25.657 18.1344 25.2959 18.7202ZM25.464 14.1837C20.3065 11.1208 11.7993 10.8392 6.8759 12.3335C6.08529 12.5732 5.2492 12.1269 5.00961 11.3363C4.77002 10.5453 5.21596 9.70984 6.00714 9.46949C11.6589 7.75377 21.0543 8.08526 26.9913 11.6097C27.7025 12.0318 27.9358 12.9502 27.5143 13.6604C27.0939 14.3715 26.1728 14.6059 25.464 14.1837Z" fill="#E8E8E8"/>
</svg>
