<svg width="32" height="32" viewBox="0 0 32 32" fill="none" xmlns="http://www.w3.org/2000/svg">
<path fill-rule="evenodd" clip-rule="evenodd" d="M32 16C32 24.8365 24.8364 32 16 32C7.16357 32 0 24.8365 0 16C0 7.16344 7.16357 0 16 0C24.8364 0 32 7.16344 32 16ZM20.4761 18.5119H21.5518L21.5645 17.9298C21.5645 17.6709 21.3354 17.4595 21.0566 17.4595H20.9878C20.709 17.4595 20.4814 17.6708 20.4814 17.9298L20.4761 18.5119ZM17.0244 17.6445C17.0244 17.4354 17.2476 17.2643 17.5195 17.2643C17.7935 17.2643 18.0166 17.4354 18.0166 17.6443V20.4756C18.0166 20.6847 17.7935 20.8548 17.5195 20.8548C17.2476 20.8548 17.0244 20.6847 17.0244 20.4756V17.6445ZM24.0664 21.0664V15.681C24.0664 14.3893 22.8652 13.3317 21.3965 13.3317H10.417C8.94775 13.3317 7.74658 14.389 7.74658 15.681V21.0664C7.74658 22.3582 8.94775 23.4153 10.417 23.4153H21.396C22.8652 23.4153 24.0664 22.3584 24.0664 21.0664ZM11.1484 15.9783L11.1489 21.6513L10.0142 21.6511V15.9621L8.88135 15.9589V15.1328L12.5093 15.1379V15.9788L11.1484 15.9783ZM14.0942 16.8236H15.229L15.2285 21.6496L14.3179 21.6483L14.3198 21.0229C14.0752 21.5131 13.0962 21.9075 12.5864 21.5641C12.3452 21.4037 12.3232 21.1365 12.3037 20.8874L12.2944 20.7846C12.2852 20.6912 12.2856 20.5307 12.2876 20.3183C12.2886 20.1758 12.2905 20.0099 12.2905 19.8252L12.2866 16.8233H13.415L13.4199 19.8733C13.4204 20.0334 13.417 20.1678 13.4146 20.2771C13.4102 20.4523 13.4072 20.5633 13.4238 20.6129C13.585 21.0716 14 20.8222 14.0928 20.5873C14.1055 20.5545 14.1074 20.496 14.106 20.4058C14.1035 20.2841 14.0942 20.1046 14.0942 19.8528V16.8236ZM18.8569 17.7709L18.8594 20.2923C18.8613 21.5144 18.1123 22.2129 16.9204 21.1928L16.8359 21.596L15.9038 21.6088L15.9092 15.1389L17.043 15.1371L17.0381 17.0118C18.0854 16.2343 18.856 16.8098 18.8569 17.7709ZM21.5601 19.9625L22.4111 19.9583C22.7988 22.1078 19.5435 22.461 19.543 19.962V18.4587C19.543 18.0076 19.5908 17.653 19.6875 17.393C19.7837 17.1328 19.9482 16.9395 20.1641 16.7949C20.8516 16.3323 22.2119 16.4756 22.3511 17.3795C22.3955 17.6652 22.4092 18.1647 22.4092 18.6641V19.3479H20.4609V20.5128C20.4609 20.7496 20.6709 20.9425 20.9263 20.9425H21.0928C21.3481 20.9425 21.5576 20.7496 21.5576 20.5128V20.07C21.5581 20.0302 21.5601 19.9942 21.5601 19.9625ZM18.3193 12.1178C18.1953 12.0363 18.1045 11.9291 18.0464 11.7961C18.0112 11.7157 17.9844 11.6337 17.9653 11.5498C17.9526 11.4936 17.9434 11.4365 17.9375 11.3784C17.9233 11.2325 17.9155 10.9452 17.9155 10.5142V7.13129H18.9541V11.035C18.9541 11.246 19.1421 11.4191 19.3687 11.4191C19.5972 11.4191 19.7842 11.246 19.7842 11.035V7.13129H20.7798V12.147H19.5151L19.5366 11.7318C19.4502 11.9006 19.3438 12.0267 19.2178 12.1114C19.0923 12.1966 18.9473 12.2378 18.7837 12.2378C18.5972 12.2378 18.4404 12.1973 18.3193 12.1178ZM14.3418 7.83498C14.2563 8.10594 14.2134 8.48174 14.2134 8.96326V10.2913C14.2134 10.7311 14.2363 11.0607 14.2842 11.2804C14.3311 11.4998 14.4092 11.6881 14.5215 11.8427C14.5767 11.9202 14.6436 11.9881 14.7217 12.0463C14.7993 12.104 14.8877 12.1521 14.9878 12.1905C15.1875 12.2683 15.4307 12.3053 15.7188 12.3053C15.9771 12.3053 16.2056 12.2612 16.4048 12.1706C16.603 12.0813 16.7661 11.9411 16.8926 11.7536C17.0205 11.5644 17.103 11.3624 17.1411 11.1444C17.1797 10.9269 17.1997 10.5848 17.1997 10.1195V8.85083C17.1997 8.48344 17.1792 8.21024 17.1367 8.02959C17.0947 7.85118 17.0176 7.6767 16.9023 7.50708C16.8472 7.42389 16.7798 7.34854 16.7007 7.28088C16.6187 7.21101 16.5239 7.14935 16.4175 7.09573C16.2905 7.03226 16.1484 6.98752 15.9907 6.96211C15.8882 6.94556 15.7793 6.93719 15.6641 6.93719C15.3169 6.93719 15.0303 7.01938 14.8066 7.18408C14.583 7.34755 14.4277 7.56473 14.3418 7.83498ZM15.7065 11.4716C15.4307 11.4716 15.2036 11.2396 15.2036 10.9559V8.28561C15.2036 8.00165 15.4307 7.76997 15.7065 7.76997C15.9829 7.76997 16.2085 8.00191 16.2085 8.28561V10.9559C16.2085 11.2399 15.9829 11.4716 15.7065 11.4716ZM12.8965 12.3041H11.7026L11.7012 8.45937L10.2007 5.15527H11.4922L12.2529 7.60986L13.0024 5.16164H14.3076L12.8975 8.45714L12.8965 12.3041Z" fill="#E8E8E8"/>
</svg>
